<svg width="20" height="19" viewBox="0 0 20 19" fill="none" xmlns="http://www.w3.org/2000/svg">
<g id="Dislike">
<path id="Vector" fill-rule="evenodd" clip-rule="evenodd" d="M3.5 0.25C1.70507 0.25 0.25 1.70507 0.25 3.5V11.5C0.25 13.2949 1.70507 14.75 3.5 14.75C4.74232 14.75 5.82184 14.053 6.36879 13.0286C6.45815 13.1756 6.55444 13.3321 6.65821 13.5006L8.93667 17.2031C9.33703 17.8537 10.0462 18.25 10.8101 18.25C12.1583 18.25 13.1893 17.0483 12.9843 15.7157L12.7413 14.136C12.5483 12.8814 13.5189 11.75 14.7882 11.75H15.478C18.5725 11.75 20.5852 8.4934 19.2013 5.72555L18.0528 3.42852C17.0788 1.48052 15.0878 0.25 12.9098 0.25H10C8.53732 0.25 7.22906 0.911116 6.35773 1.95083C5.80737 0.937738 4.734 0.25 3.5 0.25ZM5.25 3.5C5.25 2.5335 4.4665 1.75 3.5 1.75C2.5335 1.75 1.75 2.5335 1.75 3.5V11.5C1.75 12.4665 2.5335 13.25 3.5 13.25C4.4665 13.25 5.25 12.4665 5.25 11.5V3.5ZM6.85647 10.5301C6.75431 10.0824 6.75 9.60946 6.75 8.43392V5C6.75 3.20507 8.20507 1.75 10 1.75H12.9098C14.5196 1.75 15.9912 2.65951 16.7111 4.09935L17.8597 6.39637C18.7449 8.16687 17.4575 10.25 15.478 10.25H14.7882C12.5996 10.25 10.9259 12.2009 11.2587 14.364L11.5018 15.9438C11.567 16.3677 11.239 16.75 10.8101 16.75C10.5671 16.75 10.3415 16.6239 10.2142 16.417L7.98362 12.7924C7.36752 11.7912 7.12335 11.3862 6.97568 10.9513C6.92874 10.8131 6.88895 10.6725 6.85647 10.5301Z" fill="#781717"/>
</g>
</svg>
