<svg width="20" height="19" viewBox="0 0 20 19" fill="none" xmlns="http://www.w3.org/2000/svg">
<g id="Like">
<path id="Vector" fill-rule="evenodd" clip-rule="evenodd" d="M10 18.25C8.53732 18.25 7.22906 17.5889 6.35773 16.5492C5.80737 17.5623 4.734 18.25 3.5 18.25C1.70507 18.25 0.25 16.7949 0.25 15V7C0.25 5.20507 1.70507 3.75 3.5 3.75C4.74232 3.75 5.82184 4.44704 6.36879 5.47137C6.45813 5.32441 6.55441 5.168 6.65814 4.99948L8.93667 1.29688C9.33703 0.646299 10.0462 0.25 10.8101 0.25C12.1583 0.25 13.1893 1.45173 12.9843 2.78427L12.7413 4.36404C12.5483 5.61859 13.5189 6.75 14.7882 6.75H15.478C18.5725 6.75 20.5852 10.0066 19.2013 12.7744L18.0528 15.0715C17.0788 17.0195 15.0878 18.25 12.9098 18.25H10ZM10.2142 2.08302C10.3415 1.87607 10.5671 1.75 10.8101 1.75C11.239 1.75 11.567 2.13228 11.5018 2.55618L11.2587 4.13596C10.9259 6.29915 12.5996 8.25 14.7882 8.25H15.478C17.4575 8.25 18.7449 10.3331 17.8597 12.1036L16.7111 14.4007C15.9912 15.8405 14.5196 16.75 12.9098 16.75H10C8.20507 16.75 6.75 15.2949 6.75 13.5V10.0661C6.75 8.89054 6.75431 8.41764 6.85647 7.96988C6.88895 7.82753 6.92874 7.68695 6.97568 7.5487C7.12335 7.11381 7.36752 6.70881 7.98362 5.70765L10.2142 2.08302ZM3.5 5.25C4.4665 5.25 5.25 6.0335 5.25 7V15C5.25 15.9665 4.4665 16.75 3.5 16.75C2.5335 16.75 1.75 15.9665 1.75 15V7C1.75 6.0335 2.5335 5.25 3.5 5.25Z" fill="#153F25"/>
</g>
</svg>
