<svg width="36" height="37" viewBox="0 0 36 37" fill="none" xmlns="http://www.w3.org/2000/svg">
<g clip-path="url(#clip0_421_172)">
<path d="M14.0027 7.70348C14.6163 7.60628 15.035 7.03001 14.9378 6.41634C14.8406 5.80267 14.2644 5.38399 13.6507 5.48118C9.96013 6.06571 7.06567 8.96017 6.48114 12.6507C6.38394 13.2644 6.80263 13.8407 7.4163 13.9379C8.02997 14.0351 8.60624 13.6164 8.70343 13.0027C9.13548 10.2749 11.2749 8.13552 14.0027 7.70348Z" fill="#5B5959"/>
<path fill-rule="evenodd" clip-rule="evenodd" d="M16.5 0.875C8.42284 0.875 1.875 7.42284 1.875 15.5C1.875 23.5772 8.42284 30.125 16.5 30.125C24.5772 30.125 31.125 23.5772 31.125 15.5C31.125 7.42284 24.5772 0.875 16.5 0.875ZM4.125 15.5C4.125 8.66548 9.66548 3.125 16.5 3.125C23.3345 3.125 28.875 8.66548 28.875 15.5C28.875 22.3345 23.3345 27.875 16.5 27.875C9.66548 27.875 4.125 22.3345 4.125 15.5Z" fill="#5B5959"/>
<path d="M29.2956 26.7046C28.8563 26.2653 28.1439 26.2653 27.7046 26.7046C27.2653 27.144 27.2653 27.8563 27.7046 28.2956L33.7044 34.2955C34.1438 34.7349 34.8561 34.7349 35.2954 34.2956C35.7348 33.8562 35.7348 33.1439 35.2954 32.7046L29.2956 26.7046Z" fill="#5B5959"/>
</g>
<defs>
<clipPath id="clip0_421_172">
<rect width="36" height="36" fill="white" transform="translate(0 0.5)"/>
</clipPath>
</defs>
</svg>
